<mxfile host="app.diagrams.net" modified="2023-02-07T02:15:54.232Z" agent="5.0 (Windows NT 10.0; Win64; x64) AppleWebKit/537.36 (KHTML, like Gecko) Chrome/109.0.0.0 Safari/537.36" etag="q8cXHWDGxr8_1GqfAzM_" version="20.8.17" type="github">
  <diagram name="페이지-1" id="DMLoliYbCcPYiA-tEeMM">
    <mxGraphModel dx="1434" dy="-96" grid="1" gridSize="10" guides="1" tooltips="1" connect="1" arrows="1" fold="1" page="1" pageScale="1" pageWidth="1169" pageHeight="827" math="0" shadow="0">
      <root>
        <mxCell id="0" />
        <mxCell id="1" parent="0" />
        <mxCell id="F7rXoUSik3Z-3deRKmfp-1" value="Member" style="text;html=1;strokeColor=none;fillColor=none;align=center;verticalAlign=middle;whiteSpace=wrap;rounded=0;" vertex="1" parent="1">
          <mxGeometry x="50" y="900" width="60" height="30" as="geometry" />
        </mxCell>
        <mxCell id="F7rXoUSik3Z-3deRKmfp-2" value="MemberController" style="swimlane;fontStyle=1;align=center;verticalAlign=top;childLayout=stackLayout;horizontal=1;startSize=26;horizontalStack=0;resizeParent=1;resizeParentMax=0;resizeLast=0;collapsible=1;marginBottom=0;" vertex="1" parent="1">
          <mxGeometry x="50" y="950" width="267" height="150" as="geometry" />
        </mxCell>
        <mxCell id="F7rXoUSik3Z-3deRKmfp-3" value="+ memberservice : MemberService" style="text;strokeColor=none;fillColor=none;align=left;verticalAlign=top;spacingLeft=4;spacingRight=4;overflow=hidden;rotatable=0;points=[[0,0.5],[1,0.5]];portConstraint=eastwest;" vertex="1" parent="F7rXoUSik3Z-3deRKmfp-2">
          <mxGeometry y="26" width="267" height="26" as="geometry" />
        </mxCell>
        <mxCell id="F7rXoUSik3Z-3deRKmfp-4" value="" style="line;strokeWidth=1;fillColor=none;align=left;verticalAlign=middle;spacingTop=-1;spacingLeft=3;spacingRight=3;rotatable=0;labelPosition=right;points=[];portConstraint=eastwest;strokeColor=inherit;" vertex="1" parent="F7rXoUSik3Z-3deRKmfp-2">
          <mxGeometry y="52" width="267" height="8" as="geometry" />
        </mxCell>
        <mxCell id="F7rXoUSik3Z-3deRKmfp-5" value="+ getMemberjoin&#xa;+ memberLogin&#xa;+  getMemberjoin(memberDTO) : String" style="text;strokeColor=none;fillColor=none;align=left;verticalAlign=top;spacingLeft=4;spacingRight=4;overflow=hidden;rotatable=0;points=[[0,0.5],[1,0.5]];portConstraint=eastwest;" vertex="1" parent="F7rXoUSik3Z-3deRKmfp-2">
          <mxGeometry y="60" width="267" height="90" as="geometry" />
        </mxCell>
        <mxCell id="F7rXoUSik3Z-3deRKmfp-6" value="MemberService" style="swimlane;fontStyle=1;align=center;verticalAlign=top;childLayout=stackLayout;horizontal=1;startSize=26;horizontalStack=0;resizeParent=1;resizeParentMax=0;resizeLast=0;collapsible=1;marginBottom=0;" vertex="1" parent="1">
          <mxGeometry x="387" y="950" width="267" height="86" as="geometry" />
        </mxCell>
        <mxCell id="F7rXoUSik3Z-3deRKmfp-7" value="+ memberDAO MemberDAO" style="text;strokeColor=none;fillColor=none;align=left;verticalAlign=top;spacingLeft=4;spacingRight=4;overflow=hidden;rotatable=0;points=[[0,0.5],[1,0.5]];portConstraint=eastwest;" vertex="1" parent="F7rXoUSik3Z-3deRKmfp-6">
          <mxGeometry y="26" width="267" height="26" as="geometry" />
        </mxCell>
        <mxCell id="F7rXoUSik3Z-3deRKmfp-8" value="" style="line;strokeWidth=1;fillColor=none;align=left;verticalAlign=middle;spacingTop=-1;spacingLeft=3;spacingRight=3;rotatable=0;labelPosition=right;points=[];portConstraint=eastwest;strokeColor=inherit;" vertex="1" parent="F7rXoUSik3Z-3deRKmfp-6">
          <mxGeometry y="52" width="267" height="8" as="geometry" />
        </mxCell>
        <mxCell id="F7rXoUSik3Z-3deRKmfp-9" value="+ setMemberAdd(MemberDTO) int" style="text;strokeColor=none;fillColor=none;align=left;verticalAlign=top;spacingLeft=4;spacingRight=4;overflow=hidden;rotatable=0;points=[[0,0.5],[1,0.5]];portConstraint=eastwest;" vertex="1" parent="F7rXoUSik3Z-3deRKmfp-6">
          <mxGeometry y="60" width="267" height="26" as="geometry" />
        </mxCell>
        <mxCell id="F7rXoUSik3Z-3deRKmfp-10" value="MemberDAO" style="swimlane;fontStyle=1;align=center;verticalAlign=top;childLayout=stackLayout;horizontal=1;startSize=26;horizontalStack=0;resizeParent=1;resizeParentMax=0;resizeLast=0;collapsible=1;marginBottom=0;" vertex="1" parent="1">
          <mxGeometry x="728.5" y="950" width="267" height="124" as="geometry" />
        </mxCell>
        <mxCell id="F7rXoUSik3Z-3deRKmfp-11" value="+ sql Session : SqlSession&#xa;- NAMESPACE : String" style="text;strokeColor=none;fillColor=none;align=left;verticalAlign=top;spacingLeft=4;spacingRight=4;overflow=hidden;rotatable=0;points=[[0,0.5],[1,0.5]];portConstraint=eastwest;" vertex="1" parent="F7rXoUSik3Z-3deRKmfp-10">
          <mxGeometry y="26" width="267" height="64" as="geometry" />
        </mxCell>
        <mxCell id="F7rXoUSik3Z-3deRKmfp-12" value="" style="line;strokeWidth=1;fillColor=none;align=left;verticalAlign=middle;spacingTop=-1;spacingLeft=3;spacingRight=3;rotatable=0;labelPosition=right;points=[];portConstraint=eastwest;strokeColor=inherit;" vertex="1" parent="F7rXoUSik3Z-3deRKmfp-10">
          <mxGeometry y="90" width="267" height="8" as="geometry" />
        </mxCell>
        <mxCell id="F7rXoUSik3Z-3deRKmfp-13" value="+  getMemberjoin(memberDTO) : String" style="text;strokeColor=none;fillColor=none;align=left;verticalAlign=top;spacingLeft=4;spacingRight=4;overflow=hidden;rotatable=0;points=[[0,0.5],[1,0.5]];portConstraint=eastwest;" vertex="1" parent="F7rXoUSik3Z-3deRKmfp-10">
          <mxGeometry y="98" width="267" height="26" as="geometry" />
        </mxCell>
        <mxCell id="F7rXoUSik3Z-3deRKmfp-14" value="" style="endArrow=classic;html=1;rounded=0;entryX=0;entryY=0.5;entryDx=0;entryDy=0;" edge="1" parent="1" source="F7rXoUSik3Z-3deRKmfp-5" target="F7rXoUSik3Z-3deRKmfp-9">
          <mxGeometry width="50" height="50" relative="1" as="geometry">
            <mxPoint x="370" y="880" as="sourcePoint" />
            <mxPoint x="420" y="830" as="targetPoint" />
          </mxGeometry>
        </mxCell>
        <mxCell id="F7rXoUSik3Z-3deRKmfp-15" value="" style="endArrow=classic;html=1;rounded=0;exitX=0.951;exitY=-0.154;exitDx=0;exitDy=0;exitPerimeter=0;entryX=0.017;entryY=0.125;entryDx=0;entryDy=0;entryPerimeter=0;" edge="1" parent="1" source="F7rXoUSik3Z-3deRKmfp-9" target="F7rXoUSik3Z-3deRKmfp-12">
          <mxGeometry width="50" height="50" relative="1" as="geometry">
            <mxPoint x="640" y="1030" as="sourcePoint" />
            <mxPoint x="690" y="980" as="targetPoint" />
          </mxGeometry>
        </mxCell>
      </root>
    </mxGraphModel>
  </diagram>
</mxfile>
